<svg width="17" height="20" viewBox="0 0 17 20" fill="none" xmlns="http://www.w3.org/2000/svg">
<path d="M14.6852 0.0178697C14.3486 0.0406361 14.1291 0.0829165 13.7502 0.196748C13.2509 0.349609 12.7257 0.642319 12.2947 1.00821C12.1094 1.16595 11.7874 1.50419 11.667 1.66681C11.641 1.70258 11.6166 1.73511 11.6118 1.73998C11.5987 1.75299 11.4573 1.96765 11.4069 2.05384C11.3808 2.09612 11.3402 2.16279 11.3158 2.20019C11.2914 2.23759 11.2703 2.27825 11.2703 2.28963C11.2703 2.3124 11.2426 2.36281 11.202 2.42135C11.1857 2.44249 11.1727 2.47176 11.1727 2.4864C11.1727 2.50103 11.1467 2.56608 11.1158 2.6295C11.0849 2.69455 11.0589 2.75309 11.0589 2.75959C11.0589 2.7661 11.0377 2.84253 11.0101 2.92709C10.8426 3.46698 10.8328 3.54829 10.8149 4.59391C10.7873 6.32253 10.7759 6.49491 10.6523 6.98438C10.5531 7.38117 10.3872 7.65274 10.0474 7.9796C9.95631 8.06741 9.84736 8.17149 9.8067 8.21214C9.68799 8.3276 9.0359 8.95205 8.85539 9.12117C8.76595 9.20573 8.63424 9.33095 8.56268 9.40087C8.49113 9.46917 8.39356 9.56024 8.34478 9.60415C8.29599 9.64805 8.2098 9.72936 8.15289 9.78628C8.00003 9.93751 8.00328 9.95377 8.22444 10.1847C8.82124 10.8124 8.99524 10.9929 9.21478 11.2189C9.34812 11.3588 9.51399 11.5295 9.58067 11.5995C9.64571 11.6694 9.75954 11.7865 9.82947 11.8596C10.1791 12.2207 10.249 12.2955 10.3547 12.419C10.4995 12.5882 10.623 12.8321 10.6897 13.0809C10.797 13.4809 10.8182 13.8159 10.8214 15.1396C10.8247 16.2958 10.8296 16.3853 10.9206 16.7577C10.9613 16.9284 10.9824 16.9951 11.067 17.2374C11.1418 17.4472 11.2442 17.6667 11.3695 17.8765C11.3987 17.9301 11.4426 18.0033 11.4638 18.0391C11.4849 18.0765 11.5174 18.1269 11.5369 18.1513C11.5565 18.1741 11.5939 18.2245 11.6199 18.2635C11.8248 18.5513 12.1939 18.927 12.4801 19.1384C12.6184 19.2408 12.781 19.3514 12.794 19.3514C12.8005 19.3514 12.82 19.366 12.8379 19.3823C12.872 19.4132 13.2087 19.5888 13.3924 19.6701C13.6233 19.771 14.0835 19.9027 14.3632 19.945C14.5714 19.9775 15.5487 20.0068 16.1032 19.9986C16.5049 19.9921 16.5407 19.9889 16.5732 19.9596C16.6529 19.8897 16.6496 19.9271 16.6513 18.2814C16.6529 16.6162 16.6545 16.6471 16.5716 16.6032C16.5456 16.5902 16.3146 16.5853 15.7276 16.5869C14.9487 16.5885 14.9161 16.5869 14.8072 16.5528C14.669 16.5121 14.5714 16.4568 14.4738 16.369C14.3925 16.2942 14.2787 16.1365 14.2787 16.0974C14.2787 16.0828 14.264 16.0308 14.2478 15.982C14.2185 15.8974 14.2169 15.8503 14.2234 15.2502C14.2283 14.899 14.2331 14.603 14.238 14.5916C14.2445 14.5721 14.2039 13.6517 14.1827 13.3508C14.1746 13.2484 14.1616 13.1199 14.1518 13.0663C14.1421 13.0126 14.1177 12.863 14.0982 12.7329C14.0803 12.6028 14.051 12.4532 14.0347 12.3995C14.0185 12.3459 13.9925 12.245 13.9795 12.1735C13.9648 12.1036 13.9437 12.0304 13.9339 12.0125C13.9242 11.9946 13.8998 11.9263 13.8803 11.8645C13.8152 11.6661 13.7583 11.51 13.7274 11.4498C13.7111 11.4173 13.6672 11.3295 13.6315 11.2531C13.5388 11.0661 13.4444 10.8921 13.4022 10.8335C13.3843 10.8059 13.368 10.7799 13.368 10.775C13.368 10.736 13.1111 10.3993 12.8525 10.0985L12.8005 10.0383L12.8769 9.95052C12.9972 9.8123 13.2704 9.44478 13.2704 9.42201C13.2704 9.41551 13.2883 9.38786 13.3095 9.36022C13.3306 9.33257 13.3631 9.28054 13.3827 9.24476C13.4022 9.20899 13.4444 9.13581 13.4737 9.08214C13.5046 9.02848 13.5436 8.9553 13.5599 8.91953C13.5778 8.88375 13.6136 8.8057 13.6428 8.74553C13.6705 8.68536 13.6932 8.62844 13.6932 8.61869C13.6932 8.60893 13.703 8.58454 13.716 8.56502C13.7583 8.49835 13.9697 7.86577 13.9697 7.8056C13.9697 7.78934 13.9908 7.6934 14.0169 7.59257C14.0754 7.36166 14.16 6.78599 14.1811 6.46401C14.2039 6.11276 14.2136 5.67369 14.2201 4.81345C14.2266 4.11907 14.2283 4.04915 14.2575 3.95971C14.3453 3.69139 14.5584 3.49787 14.8332 3.43771C14.9356 3.41494 15.0657 3.41169 15.7341 3.41494C16.3374 3.41657 16.526 3.41331 16.5618 3.39705C16.6545 3.35477 16.6513 3.42632 16.6513 1.70909C16.6513 0.643945 16.6464 0.117066 16.635 0.0910474C16.6252 0.0715334 16.5976 0.0422623 16.5716 0.0276267C16.5309 0.00323419 16.4447 -1.81485e-05 15.7064 0.00160802C15.2576 0.00323419 14.7974 0.011365 14.6852 0.0178697Z" fill="#E8B5FC"/>
<path d="M0.0691122 0.0243901C0.0495982 0.0390256 0.0268318 0.0650443 0.0170748 0.081306C-0.00569159 0.123586 -0.00569159 16.6097 0.0170748 16.652C0.0626075 16.7365 -0.0203271 16.7333 1.70829 16.7333C3.48895 16.7333 3.36536 16.7414 3.39951 16.6227C3.41089 16.582 3.41577 15.7722 3.41577 14.1558C3.41577 12.8321 3.41577 11.7393 3.41577 11.7279C3.41577 11.7117 3.89224 11.7084 5.82738 11.7084L8.23736 11.71L8.26663 11.6743C8.30728 11.6222 8.30403 11.5198 8.2585 11.4856C8.20809 11.4482 7.6682 10.9002 7.43566 10.6514C7.32996 10.5408 7.13156 10.3343 6.99334 10.1928C6.85512 10.0514 6.73966 9.92939 6.73641 9.92126C6.73315 9.91313 6.74291 9.89686 6.75592 9.88548C6.7673 9.87247 6.85837 9.78628 6.95431 9.69197C7.05188 9.59765 7.24377 9.41552 7.38199 9.28542C7.51859 9.15533 7.67633 9.00735 7.73162 8.95531C8.00482 8.6935 8.1528 8.5569 8.20484 8.51625C8.25362 8.47559 8.26175 8.45933 8.26175 8.40079C8.26175 8.31135 8.21947 8.26907 8.14629 8.2837C8.09263 8.29346 3.43203 8.29834 3.42065 8.28858C3.41739 8.2837 3.41252 4.06054 3.41577 3.43447C3.41577 3.41983 3.99143 3.41495 6.24205 3.41495C8.92523 3.41495 9.07646 3.41658 9.25534 3.44585C9.43747 3.47512 9.49927 3.49463 9.72693 3.59546C9.8554 3.65237 9.88792 3.654 9.93508 3.60521C9.9611 3.57594 9.97411 3.53366 9.98549 3.43609C10.0001 3.29949 10.0701 2.97101 10.1091 2.84579C10.2359 2.44738 10.301 2.262 10.34 2.18394C10.3579 2.14979 10.4067 2.05222 10.4473 1.96766C10.4896 1.8831 10.5465 1.76927 10.5758 1.71561C10.6311 1.61316 10.8783 1.22938 10.9173 1.1871C10.9287 1.17409 10.9514 1.13994 10.9693 1.11392C10.9986 1.06514 11.1124 0.931793 11.2376 0.796821C11.3726 0.652091 11.3612 0.604933 11.1693 0.510615C10.9531 0.401661 10.8246 0.349624 10.6034 0.276446C10.3693 0.19839 10.1985 0.149605 10.1237 0.138222C10.0798 0.133343 10.0066 0.117082 9.9611 0.104072C9.86028 0.0748013 9.71229 0.0552873 9.35616 0.0243901C9.11874 0.00487604 8.38534 -2.46638e-06 4.59149 -2.46638e-06C0.552084 -2.46638e-06 0.103262 0.0016237 0.0691122 0.0243901Z" fill="#FAF9FB"/>
</svg>
