<svg width="264" height="264" viewBox="0 0 264 264" fill="none" xmlns="http://www.w3.org/2000/svg">
<g clip-path="url(#clip0_27_75)">
<g opacity="0.925">
<mask id="path-1-inside-1_27_75" fill="white">
<path fill-rule="evenodd" clip-rule="evenodd" d="M263.936 258.521C263.936 259.337 263.936 260.155 263.936 260.971C261.873 258.93 259.875 256.824 257.941 254.654C256.235 253.033 254.451 251.506 252.592 250.078C250.336 248.585 248.059 247.124 245.76 245.695C242.241 243.978 238.716 242.26 235.189 240.539C231.987 238.702 228.765 236.897 225.521 235.125C224.026 234.274 222.566 233.372 221.139 232.418C218.715 230.281 216.008 228.562 213.018 227.262C211.138 226.42 209.247 225.604 207.346 224.812C203.754 222.781 200.102 220.847 196.389 219.012C193.704 217.858 191.039 216.655 188.396 215.402C187.485 214.983 186.54 214.726 185.561 214.629C188.074 216.208 190.61 217.755 193.166 219.27C193.746 220.021 194.413 220.688 195.164 221.268C195.72 221.906 196.106 222.637 196.324 223.459C196.438 224.926 196.395 226.388 196.195 227.842C195.201 230.517 193.999 233.095 192.586 235.576C189.718 240.325 186.753 245.008 183.691 249.627C181.92 252 180.051 254.3 178.084 256.523C175.251 259.122 172.33 261.592 169.318 263.936C168.459 263.936 167.6 263.936 166.74 263.936C168.612 262.301 170.546 260.732 172.541 259.23C174.515 257.522 176.426 255.738 178.277 253.881C180.088 251.597 181.851 249.276 183.562 246.92C185.883 243.224 188.203 239.53 190.523 235.834C192.22 232.957 193.638 229.949 194.777 226.811C194.864 225.822 194.864 224.834 194.777 223.846C194.532 223.227 194.188 222.667 193.746 222.17C192.83 221.464 191.948 220.712 191.104 219.914C186.994 217.625 183.084 215.047 179.373 212.18C177.826 210.719 176.473 209.108 175.312 207.346C175.084 211.771 174.869 216.196 174.668 220.623C173.83 214.749 173.53 208.819 173.766 202.834C173.941 199.733 174.156 196.639 174.41 193.553C172.777 195.787 171.145 198.022 169.512 200.256C167.574 202.302 165.619 204.32 163.646 206.314C165.226 203.81 166.837 201.317 168.48 198.838C172.874 193.234 176.654 187.218 179.824 180.791C181.318 177.267 182.392 173.615 183.047 169.834C183.363 168.013 183.641 166.187 183.885 164.355C183.1 161.115 182.606 157.828 182.402 154.494C181.896 140.54 182.756 126.661 184.98 112.857C185.42 110.961 185.742 109.049 185.947 107.121C185.277 97.7022 184.052 88.3565 182.273 79.084C181.16 74.7945 179.613 70.6695 177.633 66.709C176.264 64.1635 174.781 61.6929 173.186 59.2969C171.511 58.1154 169.791 56.9983 168.029 55.9453C166.627 55.2013 165.166 54.5998 163.646 54.1406C160.838 53.5122 158.002 53.0395 155.139 52.7227C153.239 52.3336 151.349 51.904 149.467 51.4336C147.058 51.1255 144.652 50.8032 142.248 50.4668C137.506 50.9288 132.757 51.0148 128.004 50.7246C123.341 50.9538 118.765 51.7058 114.275 52.9805C109.372 54.5719 104.431 56.0328 99.4512 57.3633C96.6316 58.1307 93.9675 59.2478 91.459 60.7148C86.7401 66.7795 83.3672 73.5471 81.3398 81.0176C80.6555 85.118 80.1828 89.243 79.9219 93.3926C79.9019 98.6349 79.9019 103.877 79.9219 109.119C79.4726 115.626 79.0644 122.136 78.6973 128.648C78.7291 131.733 78.944 134.806 79.3418 137.865C79.3199 138.127 79.2768 138.385 79.2129 138.639C79.8123 141.887 80.3065 145.154 80.6953 148.436C81.1067 152.942 81.4504 157.454 81.7266 161.971C82.6406 169.999 85.2188 177.432 89.4609 184.271C92.8753 189.622 96.8284 194.563 101.32 199.096C103.019 201.205 104.716 203.311 106.412 205.412C104.439 203.952 102.506 202.425 100.611 200.836C97.8245 197.921 95.1819 194.892 92.6836 191.748C93.1566 197.509 93.7151 203.267 94.3594 209.021C94.5242 212.758 94.5672 216.497 94.4883 220.236C94.3612 221.212 94.2107 222.179 94.0371 223.137C94.1155 223.295 94.1584 223.467 94.166 223.652C93.8396 225.866 93.5603 228.079 93.3281 230.291C93.2922 228.138 93.1848 225.991 93.0059 223.846C93.0488 223.416 93.0918 222.986 93.1348 222.557C93.0539 218.473 92.925 214.392 92.748 210.311C91.418 210.965 90.2363 211.824 89.2031 212.889C88.5457 214.001 88.202 215.205 88.1719 216.498C87.707 220.416 87.75 224.325 88.3008 228.229C90.3143 238.363 94.4824 247.473 100.805 255.557C103.517 258.505 106.374 261.298 109.377 263.936C108.518 263.936 107.658 263.936 106.799 263.936C105.17 262.328 103.516 260.739 101.836 259.166C99.6849 256.881 97.7513 254.431 96.0352 251.818C94.1485 248.69 92.4298 245.467 90.8789 242.15C88.3648 236.477 86.861 230.548 86.3672 224.361C86.2696 220.996 86.4416 217.644 86.8828 214.307C87.2457 212.572 88.1696 211.218 89.6543 210.246C90.584 209.587 91.5723 209.029 92.6191 208.57C92.727 208.44 92.77 208.289 92.748 208.119C90.1456 208.512 87.6534 209.264 85.2715 210.375C83.8741 211.181 82.4562 211.954 81.0176 212.695C79.2742 213.27 77.5125 213.786 75.7324 214.242C72.9825 215.445 70.2324 216.649 67.4824 217.852C65.2734 218.531 63.0819 219.261 60.9082 220.043C59.1895 220.43 57.4707 220.816 55.752 221.203C53.6739 221.862 51.5683 222.421 49.4355 222.879C43.5608 224.669 37.6311 226.26 31.6465 227.648C30.244 228.044 28.8689 228.517 27.5215 229.066C21.1587 231.874 15.229 235.354 9.73242 239.508C6.4827 242.006 3.21706 244.477 -0.0644531 246.92C-0.0644531 246.233 -0.0644531 245.544 -0.0644531 244.857C4.96297 240.926 10.1192 237.167 15.4043 233.578C19.0446 231.436 22.7829 229.458 26.6191 227.648C27.9666 227.099 29.3416 226.626 30.7441 226.23C35.0513 225.197 39.3481 224.123 43.6348 223.008C47.505 221.75 51.4153 220.633 55.3652 219.656C56.9125 219.312 58.4594 218.969 60.0059 218.625C62.3275 217.85 64.6478 217.077 66.9668 216.305C69.6866 215.031 72.4367 213.827 75.2168 212.695C76.6348 212.309 78.0527 211.922 79.4707 211.535C81.9041 210.296 84.3533 209.094 86.8184 207.926C88.6888 207.384 90.5795 206.933 92.4902 206.572C92.0162 200.756 91.3932 194.955 90.6211 189.17C89.4948 187.305 88.3347 185.457 87.1406 183.627C86.0417 181.687 85.0104 179.711 84.0469 177.697C82.9205 174.512 81.9108 171.289 81.0176 168.029C79.5054 168.577 77.9585 168.685 76.377 168.352C74.6722 168.118 73.0394 167.646 71.4785 166.934C70.8984 166.44 70.3184 165.945 69.7383 165.451C68.8719 164.062 68.1414 162.601 67.5469 161.068C66.3171 160.486 65.1356 159.819 64.002 159.07C63.536 158.604 63.1706 158.066 62.9062 157.459C60.6143 151.757 59.4112 145.828 59.2969 139.67C58.9343 134.817 58.8912 129.962 59.168 125.104C59.3602 122.919 59.7469 120.771 60.3281 118.658C61.156 116.498 62.6813 115.102 64.9043 114.469C64.7515 98.6037 66.8356 83.0276 71.1562 67.7402C71.3496 65.6357 71.4785 63.5303 71.543 61.4238C70.9144 62.0486 70.1625 62.2851 69.2871 62.1328C68.9687 61.8665 68.7967 61.5227 68.7715 61.1016C69.0595 60.023 69.4247 58.9702 69.8672 57.9434C70.0925 57.107 70.2859 56.2691 70.4473 55.4297C69.885 55.3405 69.5197 55.0182 69.3516 54.4629C68.9783 52.9695 68.9353 51.4657 69.2227 49.9512C69.4526 48.6723 69.732 47.4048 70.0605 46.1484C69.7562 45.9051 69.5844 45.5828 69.5449 45.1816C71.2032 39.76 73.5879 34.6897 76.6992 29.9707C79.2473 27.0784 81.8899 24.264 84.627 21.5273C83.6827 21.442 83.3604 20.9479 83.6602 20.0449C86.6228 17.5875 90.0388 16.2124 93.9082 15.9199C93.8208 15.4336 93.9928 15.0684 94.4238 14.8242C95.92 14.574 97.424 14.3593 98.9355 14.1797C99.3046 13.9993 99.6913 13.8704 100.096 13.793C101.166 13.6617 102.24 13.5758 103.318 13.5352C103.394 12.8157 103.78 12.3861 104.479 12.2461C108.208 11.824 111.946 11.6951 115.693 11.8594C116.427 11.4499 117.201 11.1062 118.014 10.8281C118.781 10.6785 119.554 10.5711 120.334 10.5059C121.956 10.6424 123.567 10.8572 125.168 11.1504C127.74 10.4611 130.211 10.7189 132.58 11.9238C133.061 11.602 133.598 11.4731 134.191 11.5371C138.077 11.7412 142.008 11.999 145.986 12.3105C148.678 12.2311 151.363 12.0592 154.043 11.7949C155.836 11.9049 157.576 12.2702 159.264 12.8906C160.767 13.6849 162.229 14.5444 163.646 15.4688C166.293 16.3139 168.613 17.6889 170.607 19.5938C173.916 21.7852 177.224 23.9766 180.533 26.168C181.839 27.2589 183.106 28.3975 184.336 29.584C184.931 30.4107 185.512 31.2486 186.076 32.0977C186.649 31.9588 187.142 32.1091 187.559 32.5488C189.617 35.9112 190.757 39.5636 190.975 43.5059C190.823 44.8699 190.607 46.2235 190.33 47.5664C190.352 47.7598 190.373 47.9531 190.395 48.1465C191.409 49.4977 191.753 51.0016 191.426 52.6582C202.46 67.0608 208.819 83.3459 210.504 101.514C210.643 104.829 210.558 108.138 210.246 111.439C210.144 112.164 209.993 112.873 209.795 113.566C211.646 114.6 213 116.083 213.855 118.014C214.518 121.156 214.884 124.336 214.951 127.553C214.937 129.436 214.937 131.327 214.951 133.225C214.864 136.149 214.714 139.071 214.5 141.99C213.875 146.771 212.972 151.497 211.793 156.17C211.027 158.211 210.21 160.229 209.344 162.229C209.113 162.589 208.833 162.912 208.506 163.195C206.483 164.282 204.334 164.711 202.061 164.484C201.251 166.127 200.327 167.695 199.289 169.189C198.616 169.864 197.822 170.315 196.904 170.543C194.971 170.629 193.037 170.629 191.104 170.543C189.628 170.576 188.21 170.319 186.85 169.77C186.268 169.081 185.666 168.415 185.045 167.771C184.337 171.848 183.328 175.844 182.016 179.76C180.502 183.475 178.655 186.998 176.473 190.33C175.813 194.91 175.426 199.508 175.312 204.123C177.048 207.534 179.475 210.348 182.596 212.566C184.052 212.771 185.514 212.987 186.979 213.211C193.955 215.883 200.658 219.106 207.088 222.879C210.442 224.276 213.751 225.781 217.014 227.391C218.633 228.408 220.18 229.525 221.654 230.742C222.857 231.516 224.061 232.289 225.264 233.062C229.28 235.264 233.276 237.498 237.252 239.766C239.886 241.082 242.549 242.328 245.244 243.504C248.512 245.438 251.691 247.5 254.783 249.691C255.986 250.723 257.19 251.754 258.393 252.785C260.223 254.723 262.07 256.636 263.936 258.521ZM195.615 61.8105C196.002 62.1536 196.26 62.5833 196.389 63.0996C196.066 62.7137 195.809 62.284 195.615 61.8105ZM196.518 63.3574C203.682 75.3354 207.829 88.312 208.957 102.287C209.113 105.789 208.92 109.269 208.377 112.729C207.785 112.567 207.183 112.438 206.572 112.342C205.452 112.666 204.614 113.354 204.059 114.404C203.64 115.189 203.295 116.006 203.027 116.854C202.566 118.792 202.201 120.747 201.932 122.719C202.054 122.798 202.161 122.777 202.254 122.654C203.222 119.882 204.426 117.218 205.863 114.662C206.057 114.393 206.314 114.222 206.637 114.146C208.742 114.75 210.461 115.911 211.793 117.627C212.212 118.444 212.512 119.303 212.695 120.205C213.13 123.499 213.323 126.808 213.275 130.131C213.215 132.112 213.215 134.088 213.275 136.061C212.877 142.368 211.954 148.599 210.504 154.752C209.77 156.995 208.912 159.186 207.926 161.326C206.269 162.615 204.4 163.088 202.318 162.744C201.799 161.548 201.434 160.301 201.223 159.006C200.698 154.312 200.462 149.607 200.514 144.891C200.796 143.483 200.84 142.065 200.643 140.637C200.697 139.667 200.783 138.701 200.9 137.736C200.89 137.504 200.826 137.289 200.707 137.092C200.025 140.412 199.445 143.742 198.967 147.082C198.954 151.712 199.276 156.331 199.934 160.939C200.11 161.775 200.346 162.591 200.643 163.389C200.004 165.009 199.167 166.512 198.129 167.9C197.795 168.321 197.386 168.643 196.904 168.867C193.968 169.107 191.046 168.978 188.139 168.48C187.865 168.336 187.628 168.143 187.43 167.9C186.968 167.278 186.539 166.633 186.141 165.967C184.708 161.486 183.935 156.889 183.82 152.174C183.409 138.617 184.398 125.125 186.785 111.697C187.434 108.377 188.636 105.283 190.395 102.416C192.137 100.374 194.307 99.6225 196.904 100.16C198.262 100.7 199.593 101.302 200.9 101.965C201.172 102.112 201.408 102.305 201.609 102.545C202.125 106.215 202.748 109.867 203.479 113.502C203.7 108.502 203.463 103.518 202.77 98.5488C201.887 94.4568 200.94 90.3748 199.934 86.3027C199.473 84.6231 198.937 82.9687 198.322 81.3398C199.628 75.1442 199.026 69.1501 196.518 63.3574ZM71.6074 71.8652C71.5966 74.1635 71.661 76.4838 71.8008 78.8262C72.2929 82.076 72.6367 85.3416 72.832 88.623C72.955 94.5152 73.1913 100.402 73.541 106.283C72.0848 106.46 70.7528 106.955 69.5449 107.766C68.1928 108.988 67.1402 110.427 66.3867 112.084C66.5419 98.472 68.2822 85.0657 71.6074 71.8652ZM197.678 84.627C199.266 89.7766 200.49 95.0189 201.352 100.354C199.431 99.033 197.304 98.2596 194.971 98.0332C195.158 97.4923 195.244 96.9338 195.229 96.3574C195.097 94.425 195.075 92.4914 195.164 90.5566C195.633 89.7166 195.891 88.8142 195.938 87.8496C196.251 87.0951 196.724 86.4506 197.355 85.916C197.582 85.5154 197.689 85.0857 197.678 84.627ZM73.541 107.959C73.3642 111.678 73.6004 115.374 74.25 119.045C74.1877 122.031 74.4025 124.996 74.8945 127.939C75.1458 130.384 75.3177 132.833 75.4102 135.287C75.4829 135.755 75.6762 136.162 75.9902 136.512C76.4976 136.704 76.9917 136.897 77.4727 137.092C78.2179 142.395 79.0342 147.68 79.9219 152.947C79.9634 153.637 80.0278 154.325 80.1152 155.01C80.0162 155.766 79.8873 156.519 79.7285 157.266C79.9447 160.353 80.2885 163.426 80.7598 166.482C77.8684 167.176 75.0754 166.854 72.3809 165.516C71.2076 164.729 70.3697 163.676 69.8672 162.357C66.4813 154.377 64.8271 146.04 64.9043 137.35C64.9829 132.182 65.2621 127.026 65.7422 121.881C66.003 118.772 66.6904 115.764 67.8047 112.857C68.5206 111.24 69.5734 109.886 70.9629 108.797C71.7692 108.349 72.6286 108.07 73.541 107.959ZM64.9043 116.209C63.5267 125.545 63.1184 134.956 63.6797 144.439C64.0585 147.822 64.6171 151.174 65.3555 154.494C65.8158 155.917 66.2456 157.335 66.6445 158.748C66.021 158.394 65.4195 158.007 64.8398 157.588C62.9469 153.627 61.7867 149.459 61.3594 145.084C60.4891 138.139 60.3173 131.178 60.8438 124.201C61.0392 122.494 61.3828 120.818 61.875 119.174C62.4475 117.72 63.4572 116.732 64.9043 116.209Z" class="svg-elem-1"></path>
</mask>
<path fill-rule="evenodd" clip-rule="evenodd" d="M263.936 258.521C263.936 259.337 263.936 260.155 263.936 260.971C261.873 258.93 259.875 256.824 257.941 254.654C256.235 253.033 254.451 251.506 252.592 250.078C250.336 248.585 248.059 247.124 245.76 245.695C242.241 243.978 238.716 242.26 235.189 240.539C231.987 238.702 228.765 236.897 225.521 235.125C224.026 234.274 222.566 233.372 221.139 232.418C218.715 230.281 216.008 228.562 213.018 227.262C211.138 226.42 209.247 225.604 207.346 224.812C203.754 222.781 200.102 220.847 196.389 219.012C193.704 217.858 191.039 216.655 188.396 215.402C187.485 214.983 186.54 214.726 185.561 214.629C188.074 216.208 190.61 217.755 193.166 219.27C193.746 220.021 194.413 220.688 195.164 221.268C195.72 221.906 196.106 222.637 196.324 223.459C196.438 224.926 196.395 226.388 196.195 227.842C195.201 230.517 193.999 233.095 192.586 235.576C189.718 240.325 186.753 245.008 183.691 249.627C181.92 252 180.051 254.3 178.084 256.523C175.251 259.122 172.33 261.592 169.318 263.936C168.459 263.936 167.6 263.936 166.74 263.936C168.612 262.301 170.546 260.732 172.541 259.23C174.515 257.522 176.426 255.738 178.277 253.881C180.088 251.597 181.851 249.276 183.562 246.92C185.883 243.224 188.203 239.53 190.523 235.834C192.22 232.957 193.638 229.949 194.777 226.811C194.864 225.822 194.864 224.834 194.777 223.846C194.532 223.227 194.188 222.667 193.746 222.17C192.83 221.464 191.948 220.712 191.104 219.914C186.994 217.625 183.084 215.047 179.373 212.18C177.826 210.719 176.473 209.108 175.312 207.346C175.084 211.771 174.869 216.196 174.668 220.623C173.83 214.749 173.53 208.819 173.766 202.834C173.941 199.733 174.156 196.639 174.41 193.553C172.777 195.787 171.145 198.022 169.512 200.256C167.574 202.302 165.619 204.32 163.646 206.314C165.226 203.81 166.837 201.317 168.48 198.838C172.874 193.234 176.654 187.218 179.824 180.791C181.318 177.267 182.392 173.615 183.047 169.834C183.363 168.013 183.641 166.187 183.885 164.355C183.1 161.115 182.606 157.828 182.402 154.494C181.896 140.54 182.756 126.661 184.98 112.857C185.42 110.961 185.742 109.049 185.947 107.121C185.277 97.7022 184.052 88.3565 182.273 79.084C181.16 74.7945 179.613 70.6695 177.633 66.709C176.264 64.1635 174.781 61.6929 173.186 59.2969C171.511 58.1154 169.791 56.9983 168.029 55.9453C166.627 55.2013 165.166 54.5998 163.646 54.1406C160.838 53.5122 158.002 53.0395 155.139 52.7227C153.239 52.3336 151.349 51.904 149.467 51.4336C147.058 51.1255 144.652 50.8032 142.248 50.4668C137.506 50.9288 132.757 51.0148 128.004 50.7246C123.341 50.9538 118.765 51.7058 114.275 52.9805C109.372 54.5719 104.431 56.0328 99.4512 57.3633C96.6316 58.1307 93.9675 59.2478 91.459 60.7148C86.7401 66.7795 83.3672 73.5471 81.3398 81.0176C80.6555 85.118 80.1828 89.243 79.9219 93.3926C79.9019 98.6349 79.9019 103.877 79.9219 109.119C79.4726 115.626 79.0644 122.136 78.6973 128.648C78.7291 131.733 78.944 134.806 79.3418 137.865C79.3199 138.127 79.2768 138.385 79.2129 138.639C79.8123 141.887 80.3065 145.154 80.6953 148.436C81.1067 152.942 81.4504 157.454 81.7266 161.971C82.6406 169.999 85.2188 177.432 89.4609 184.271C92.8753 189.622 96.8284 194.563 101.32 199.096C103.019 201.205 104.716 203.311 106.412 205.412C104.439 203.952 102.506 202.425 100.611 200.836C97.8245 197.921 95.1819 194.892 92.6836 191.748C93.1566 197.509 93.7151 203.267 94.3594 209.021C94.5242 212.758 94.5672 216.497 94.4883 220.236C94.3612 221.212 94.2107 222.179 94.0371 223.137C94.1155 223.295 94.1584 223.467 94.166 223.652C93.8396 225.866 93.5603 228.079 93.3281 230.291C93.2922 228.138 93.1848 225.991 93.0059 223.846C93.0488 223.416 93.0918 222.986 93.1348 222.557C93.0539 218.473 92.925 214.392 92.748 210.311C91.418 210.965 90.2363 211.824 89.2031 212.889C88.5457 214.001 88.202 215.205 88.1719 216.498C87.707 220.416 87.75 224.325 88.3008 228.229C90.3143 238.363 94.4824 247.473 100.805 255.557C103.517 258.505 106.374 261.298 109.377 263.936C108.518 263.936 107.658 263.936 106.799 263.936C105.17 262.328 103.516 260.739 101.836 259.166C99.6849 256.881 97.7513 254.431 96.0352 251.818C94.1485 248.69 92.4298 245.467 90.8789 242.15C88.3648 236.477 86.861 230.548 86.3672 224.361C86.2696 220.996 86.4416 217.644 86.8828 214.307C87.2457 212.572 88.1696 211.218 89.6543 210.246C90.584 209.587 91.5723 209.029 92.6191 208.57C92.727 208.44 92.77 208.289 92.748 208.119C90.1456 208.512 87.6534 209.264 85.2715 210.375C83.8741 211.181 82.4562 211.954 81.0176 212.695C79.2742 213.27 77.5125 213.786 75.7324 214.242C72.9825 215.445 70.2324 216.649 67.4824 217.852C65.2734 218.531 63.0819 219.261 60.9082 220.043C59.1895 220.43 57.4707 220.816 55.752 221.203C53.6739 221.862 51.5683 222.421 49.4355 222.879C43.5608 224.669 37.6311 226.26 31.6465 227.648C30.244 228.044 28.8689 228.517 27.5215 229.066C21.1587 231.874 15.229 235.354 9.73242 239.508C6.4827 242.006 3.21706 244.477 -0.0644531 246.92C-0.0644531 246.233 -0.0644531 245.544 -0.0644531 244.857C4.96297 240.926 10.1192 237.167 15.4043 233.578C19.0446 231.436 22.7829 229.458 26.6191 227.648C27.9666 227.099 29.3416 226.626 30.7441 226.23C35.0513 225.197 39.3481 224.123 43.6348 223.008C47.505 221.75 51.4153 220.633 55.3652 219.656C56.9125 219.312 58.4594 218.969 60.0059 218.625C62.3275 217.85 64.6478 217.077 66.9668 216.305C69.6866 215.031 72.4367 213.827 75.2168 212.695C76.6348 212.309 78.0527 211.922 79.4707 211.535C81.9041 210.296 84.3533 209.094 86.8184 207.926C88.6888 207.384 90.5795 206.933 92.4902 206.572C92.0162 200.756 91.3932 194.955 90.6211 189.17C89.4948 187.305 88.3347 185.457 87.1406 183.627C86.0417 181.687 85.0104 179.711 84.0469 177.697C82.9205 174.512 81.9108 171.289 81.0176 168.029C79.5054 168.577 77.9585 168.685 76.377 168.352C74.6722 168.118 73.0394 167.646 71.4785 166.934C70.8984 166.44 70.3184 165.945 69.7383 165.451C68.8719 164.062 68.1414 162.601 67.5469 161.068C66.3171 160.486 65.1356 159.819 64.002 159.07C63.536 158.604 63.1706 158.066 62.9062 157.459C60.6143 151.757 59.4112 145.828 59.2969 139.67C58.9343 134.817 58.8912 129.962 59.168 125.104C59.3602 122.919 59.7469 120.771 60.3281 118.658C61.156 116.498 62.6813 115.102 64.9043 114.469C64.7515 98.6037 66.8356 83.0276 71.1562 67.7402C71.3496 65.6357 71.4785 63.5303 71.543 61.4238C70.9144 62.0486 70.1625 62.2851 69.2871 62.1328C68.9687 61.8665 68.7967 61.5227 68.7715 61.1016C69.0595 60.023 69.4247 58.9702 69.8672 57.9434C70.0925 57.107 70.2859 56.2691 70.4473 55.4297C69.885 55.3405 69.5197 55.0182 69.3516 54.4629C68.9783 52.9695 68.9353 51.4657 69.2227 49.9512C69.4526 48.6723 69.732 47.4048 70.0605 46.1484C69.7562 45.9051 69.5844 45.5828 69.5449 45.1816C71.2032 39.76 73.5879 34.6897 76.6992 29.9707C79.2473 27.0784 81.8899 24.264 84.627 21.5273C83.6827 21.442 83.3604 20.9479 83.6602 20.0449C86.6228 17.5875 90.0388 16.2124 93.9082 15.9199C93.8208 15.4336 93.9928 15.0684 94.4238 14.8242C95.92 14.574 97.424 14.3593 98.9355 14.1797C99.3046 13.9993 99.6913 13.8704 100.096 13.793C101.166 13.6617 102.24 13.5758 103.318 13.5352C103.394 12.8157 103.78 12.3861 104.479 12.2461C108.208 11.824 111.946 11.6951 115.693 11.8594C116.427 11.4499 117.201 11.1062 118.014 10.8281C118.781 10.6785 119.554 10.5711 120.334 10.5059C121.956 10.6424 123.567 10.8572 125.168 11.1504C127.74 10.4611 130.211 10.7189 132.58 11.9238C133.061 11.602 133.598 11.4731 134.191 11.5371C138.077 11.7412 142.008 11.999 145.986 12.3105C148.678 12.2311 151.363 12.0592 154.043 11.7949C155.836 11.9049 157.576 12.2702 159.264 12.8906C160.767 13.6849 162.229 14.5444 163.646 15.4688C166.293 16.3139 168.613 17.6889 170.607 19.5938C173.916 21.7852 177.224 23.9766 180.533 26.168C181.839 27.2589 183.106 28.3975 184.336 29.584C184.931 30.4107 185.512 31.2486 186.076 32.0977C186.649 31.9588 187.142 32.1091 187.559 32.5488C189.617 35.9112 190.757 39.5636 190.975 43.5059C190.823 44.8699 190.607 46.2235 190.33 47.5664C190.352 47.7598 190.373 47.9531 190.395 48.1465C191.409 49.4977 191.753 51.0016 191.426 52.6582C202.46 67.0608 208.819 83.3459 210.504 101.514C210.643 104.829 210.558 108.138 210.246 111.439C210.144 112.164 209.993 112.873 209.795 113.566C211.646 114.6 213 116.083 213.855 118.014C214.518 121.156 214.884 124.336 214.951 127.553C214.937 129.436 214.937 131.327 214.951 133.225C214.864 136.149 214.714 139.071 214.5 141.99C213.875 146.771 212.972 151.497 211.793 156.17C211.027 158.211 210.21 160.229 209.344 162.229C209.113 162.589 208.833 162.912 208.506 163.195C206.483 164.282 204.334 164.711 202.061 164.484C201.251 166.127 200.327 167.695 199.289 169.189C198.616 169.864 197.822 170.315 196.904 170.543C194.971 170.629 193.037 170.629 191.104 170.543C189.628 170.576 188.21 170.319 186.85 169.77C186.268 169.081 185.666 168.415 185.045 167.771C184.337 171.848 183.328 175.844 182.016 179.76C180.502 183.475 178.655 186.998 176.473 190.33C175.813 194.91 175.426 199.508 175.312 204.123C177.048 207.534 179.475 210.348 182.596 212.566C184.052 212.771 185.514 212.987 186.979 213.211C193.955 215.883 200.658 219.106 207.088 222.879C210.442 224.276 213.751 225.781 217.014 227.391C218.633 228.408 220.18 229.525 221.654 230.742C222.857 231.516 224.061 232.289 225.264 233.062C229.28 235.264 233.276 237.498 237.252 239.766C239.886 241.082 242.549 242.328 245.244 243.504C248.512 245.438 251.691 247.5 254.783 249.691C255.986 250.723 257.19 251.754 258.393 252.785C260.223 254.723 262.07 256.636 263.936 258.521ZM195.615 61.8105C196.002 62.1536 196.26 62.5833 196.389 63.0996C196.066 62.7137 195.809 62.284 195.615 61.8105ZM196.518 63.3574C203.682 75.3354 207.829 88.312 208.957 102.287C209.113 105.789 208.92 109.269 208.377 112.729C207.785 112.567 207.183 112.438 206.572 112.342C205.452 112.666 204.614 113.354 204.059 114.404C203.64 115.189 203.295 116.006 203.027 116.854C202.566 118.792 202.201 120.747 201.932 122.719C202.054 122.798 202.161 122.777 202.254 122.654C203.222 119.882 204.426 117.218 205.863 114.662C206.057 114.393 206.314 114.222 206.637 114.146C208.742 114.75 210.461 115.911 211.793 117.627C212.212 118.444 212.512 119.303 212.695 120.205C213.13 123.499 213.323 126.808 213.275 130.131C213.215 132.112 213.215 134.088 213.275 136.061C212.877 142.368 211.954 148.599 210.504 154.752C209.77 156.995 208.912 159.186 207.926 161.326C206.269 162.615 204.4 163.088 202.318 162.744C201.799 161.548 201.434 160.301 201.223 159.006C200.698 154.312 200.462 149.607 200.514 144.891C200.796 143.483 200.84 142.065 200.643 140.637C200.697 139.667 200.783 138.701 200.9 137.736C200.89 137.504 200.826 137.289 200.707 137.092C200.025 140.412 199.445 143.742 198.967 147.082C198.954 151.712 199.276 156.331 199.934 160.939C200.11 161.775 200.346 162.591 200.643 163.389C200.004 165.009 199.167 166.512 198.129 167.9C197.795 168.321 197.386 168.643 196.904 168.867C193.968 169.107 191.046 168.978 188.139 168.48C187.865 168.336 187.628 168.143 187.43 167.9C186.968 167.278 186.539 166.633 186.141 165.967C184.708 161.486 183.935 156.889 183.82 152.174C183.409 138.617 184.398 125.125 186.785 111.697C187.434 108.377 188.636 105.283 190.395 102.416C192.137 100.374 194.307 99.6225 196.904 100.16C198.262 100.7 199.593 101.302 200.9 101.965C201.172 102.112 201.408 102.305 201.609 102.545C202.125 106.215 202.748 109.867 203.479 113.502C203.7 108.502 203.463 103.518 202.77 98.5488C201.887 94.4568 200.94 90.3748 199.934 86.3027C199.473 84.6231 198.937 82.9687 198.322 81.3398C199.628 75.1442 199.026 69.1501 196.518 63.3574ZM71.6074 71.8652C71.5966 74.1635 71.661 76.4838 71.8008 78.8262C72.2929 82.076 72.6367 85.3416 72.832 88.623C72.955 94.5152 73.1913 100.402 73.541 106.283C72.0848 106.46 70.7528 106.955 69.5449 107.766C68.1928 108.988 67.1402 110.427 66.3867 112.084C66.5419 98.472 68.2822 85.0657 71.6074 71.8652ZM197.678 84.627C199.266 89.7766 200.49 95.0189 201.352 100.354C199.431 99.033 197.304 98.2596 194.971 98.0332C195.158 97.4923 195.244 96.9338 195.229 96.3574C195.097 94.425 195.075 92.4914 195.164 90.5566C195.633 89.7166 195.891 88.8142 195.938 87.8496C196.251 87.0951 196.724 86.4506 197.355 85.916C197.582 85.5154 197.689 85.0857 197.678 84.627ZM73.541 107.959C73.3642 111.678 73.6004 115.374 74.25 119.045C74.1877 122.031 74.4025 124.996 74.8945 127.939C75.1458 130.384 75.3177 132.833 75.4102 135.287C75.4829 135.755 75.6762 136.162 75.9902 136.512C76.4976 136.704 76.9917 136.897 77.4727 137.092C78.2179 142.395 79.0342 147.68 79.9219 152.947C79.9634 153.637 80.0278 154.325 80.1152 155.01C80.0162 155.766 79.8873 156.519 79.7285 157.266C79.9447 160.353 80.2885 163.426 80.7598 166.482C77.8684 167.176 75.0754 166.854 72.3809 165.516C71.2076 164.729 70.3697 163.676 69.8672 162.357C66.4813 154.377 64.8271 146.04 64.9043 137.35C64.9829 132.182 65.2621 127.026 65.7422 121.881C66.003 118.772 66.6904 115.764 67.8047 112.857C68.5206 111.24 69.5734 109.886 70.9629 108.797C71.7692 108.349 72.6286 108.07 73.541 107.959ZM64.9043 116.209C63.5267 125.545 63.1184 134.956 63.6797 144.439C64.0585 147.822 64.6171 151.174 65.3555 154.494C65.8158 155.917 66.2456 157.335 66.6445 158.748C66.021 158.394 65.4195 158.007 64.8398 157.588C62.9469 153.627 61.7867 149.459 61.3594 145.084C60.4891 138.139 60.3173 131.178 60.8438 124.201C61.0392 122.494 61.3828 120.818 61.875 119.174C62.4475 117.72 63.4572 116.732 64.9043 116.209Z" stroke="#FAF9FB" stroke-width="2" mask="url(#path-1-inside-1_27_75)" class="svg-elem-2"></path>
</g>
<path opacity="0.947" d="M156.835 171.086L156.834 171.086C154.866 171.527 152.95 171.363 151.074 170.596C149.895 170.11 148.771 169.529 147.702 168.851C143.88 165.599 139.633 163.002 134.964 161.058L134.903 161.033L134.837 161.024C134.201 160.94 133.574 160.989 132.957 161.168L132.906 161.183L132.859 161.208C130.171 162.65 127.455 162.752 124.662 161.514L124.495 161.44L124.321 161.49C121.944 162.174 119.608 162.975 117.313 163.891L117.313 163.891L117.31 163.892C114.837 164.899 113.101 166.651 112.125 169.122C110.762 170.047 109.283 170.747 107.687 171.224L107.658 171.233L107.63 171.245C106.711 171.646 106.067 171.661 105.618 171.455C105.175 171.253 104.781 170.771 104.513 169.843C104.055 167.643 104.18 165.713 104.854 164.033C105.527 162.354 106.766 160.883 108.607 159.626C110.444 158.623 112.317 157.688 114.225 156.818L114.248 156.808L114.27 156.795C116.581 155.446 118.78 153.938 120.867 152.271C122.288 151.523 123.774 151.329 125.348 151.687C127.049 152.307 128.805 152.678 130.612 152.802L130.635 152.803L130.658 152.803C131.404 152.786 132.136 152.671 132.851 152.46L132.886 152.45L132.919 152.434C133.998 151.934 135.087 151.507 136.185 151.153C138.203 151.845 140.136 152.735 141.983 153.822C145.373 156.075 148.805 158.264 152.282 160.389C153.062 160.958 153.843 161.527 154.623 162.097L154.651 162.117C155.438 162.691 156.225 163.265 157.011 163.839C158.121 164.874 158.944 166.094 159.482 167.501C159.582 168.534 159.397 169.301 158.994 169.858C158.583 170.427 157.89 170.853 156.835 171.086Z" stroke="#FAF9FB" class="svg-elem-3"></path>
<path opacity="0.928" d="M121.704 177.096C123.683 176.922 125.642 176.731 127.581 176.521C130.69 176.5 133.798 176.521 136.906 176.585C137.196 176.65 137.423 176.791 137.604 177.021C137.873 177.977 137.759 178.87 137.261 179.73C136.285 180.912 135.265 182.058 134.199 183.168C132.993 183.886 131.698 184.369 130.307 184.616C129.193 184.789 128.078 184.937 126.961 185.059C125.791 184.985 124.77 184.576 123.883 183.828C122.851 182.923 121.858 181.972 120.903 180.976C120.511 180.491 120.294 180.004 120.223 179.511C120.154 179.027 120.223 178.507 120.452 177.941C120.77 177.505 121.182 177.227 121.704 177.096Z" stroke="#FAF9FB" class="svg-elem-4"></path>
<path opacity="0.969" d="M106.77 189.702L106.709 189.706L106.65 189.724C105.332 190.133 104.46 191.036 104.063 192.38L104.055 192.408L104.05 192.438C103.733 194.304 103.867 196.145 104.451 197.952C105.199 200.581 105.972 203.203 106.772 205.816L106.774 205.824L106.777 205.831C107.332 207.466 108.031 209.04 108.874 210.551C110.047 212.718 111.562 214.346 113.428 215.409C115.294 216.472 117.48 216.951 119.964 216.869L119.964 216.869L119.976 216.868C127.785 216.417 135.6 216.095 143.42 215.902L143.432 215.902L143.444 215.901C145.849 215.727 148.175 215.2 150.422 214.321L150.424 214.32C154.218 212.816 156.969 210.657 158.619 207.819C160.268 204.98 160.781 201.52 160.21 197.479L160.204 197.438L160.192 197.399C159.724 195.912 158.965 194.796 157.879 194.124C156.792 193.453 155.45 193.271 153.902 193.51L153.887 193.512L153.872 193.515C150.203 194.315 146.548 195.174 142.908 196.095C140.752 196.549 138.585 196.632 136.403 196.347C134.45 195.933 132.552 195.342 130.71 194.574L130.675 194.559L130.638 194.55C129.074 194.161 127.498 194.115 125.913 194.415L125.884 194.42L125.856 194.429C123.282 195.239 120.653 195.533 117.966 195.314C114.308 194.399 111.134 192.64 108.435 190.035L108.36 189.962L108.262 189.926C107.781 189.747 107.282 189.672 106.77 189.702Z" stroke="#FAF9FB" class="svg-elem-5"></path>
</g>
<defs>
<clipPath id="clip0_27_75">
<rect width="264" height="264" fill="white" class="svg-elem-6"></rect>
</clipPath>
</defs>
</svg>
